<svg width="73" height="41" viewBox="0 0 73 41" fill="none" xmlns="http://www.w3.org/2000/svg">
<path d="M5.58 31.36C5.244 32.432 4.904 33.424 4.56 34.336C4.216 35.248 3.872 36.136 3.528 37H2.364C1.94 35.776 1.564 34.484 1.236 33.124C0.916 31.764 0.616 30.284 0.336 28.684H1.56C1.672 29.308 1.788 29.932 1.908 30.556C2.028 31.18 2.152 31.788 2.28 32.38C2.408 32.964 2.536 33.524 2.664 34.06C2.792 34.596 2.924 35.092 3.06 35.548C3.38 34.708 3.72 33.788 4.08 32.788C4.44 31.78 4.776 30.74 5.088 29.668H6.096C6.408 30.74 6.748 31.78 7.116 32.788C7.484 33.788 7.828 34.708 8.148 35.548C8.276 35.1 8.404 34.608 8.532 34.072C8.66 33.536 8.784 32.976 8.904 32.392C9.032 31.8 9.156 31.192 9.276 30.568C9.396 29.936 9.512 29.308 9.624 28.684H10.812C10.524 30.284 10.216 31.764 9.888 33.124C9.568 34.484 9.2 35.776 8.784 37H7.62C7.268 36.136 6.924 35.248 6.588 34.336C6.252 33.424 5.916 32.432 5.58 31.36ZM31.2616 37C31.1256 36.64 30.9976 36.288 30.8776 35.944C30.7576 35.592 30.6336 35.236 30.5056 34.876H26.7376L25.9816 37H24.7696C25.0896 36.12 25.3896 35.308 25.6696 34.564C25.9496 33.812 26.2216 33.1 26.4856 32.428C26.7576 31.756 27.0256 31.116 27.2896 30.508C27.5536 29.892 27.8296 29.284 28.1176 28.684H29.1856C29.4736 29.284 29.7496 29.892 30.0136 30.508C30.2776 31.116 30.5416 31.756 30.8056 32.428C31.0776 33.1 31.3536 33.812 31.6336 34.564C31.9136 35.308 32.2136 36.12 32.5336 37H31.2616ZM30.1696 33.916C29.9136 33.22 29.6576 32.548 29.4016 31.9C29.1536 31.244 28.8936 30.616 28.6216 30.016C28.3416 30.616 28.0736 31.244 27.8176 31.9C27.5696 32.548 27.3216 33.22 27.0736 33.916H30.1696ZM52.4066 35.992V37H47.4026V28.684H48.5666V35.992H52.4066ZM72.3693 35.992V37H67.3653V28.684H68.5293V35.992H72.3693Z" fill="white"/>
<path d="M9.96 7.14H13.08V21H9.96V15.12H4.72V21H1.6V7.14H4.72V12.44H9.96V7.14ZM33.3216 14.06C33.3216 14.74 33.4016 15.3533 33.5616 15.9C33.7349 16.4467 33.9749 16.92 34.2816 17.32C34.6016 17.7067 34.9882 18.0067 35.4416 18.22C35.8949 18.4333 36.4149 18.54 37.0016 18.54C37.5749 18.54 38.0882 18.4333 38.5416 18.22C39.0082 18.0067 39.3949 17.7067 39.7016 17.32C40.0216 16.92 40.2616 16.4467 40.4216 15.9C40.5949 15.3533 40.6816 14.74 40.6816 14.06C40.6816 13.38 40.5949 12.7667 40.4216 12.22C40.2616 11.66 40.0216 11.1867 39.7016 10.8C39.3949 10.4 39.0082 10.0933 38.5416 9.88C38.0882 9.66667 37.5749 9.56 37.0016 9.56C36.4149 9.56 35.8949 9.67333 35.4416 9.9C34.9882 10.1133 34.6016 10.42 34.2816 10.82C33.9749 11.2067 33.7349 11.68 33.5616 12.24C33.4016 12.7867 33.3216 13.3933 33.3216 14.06ZM43.9016 14.06C43.9016 15.2467 43.7216 16.2933 43.3616 17.2C43.0149 18.0933 42.5349 18.8467 41.9216 19.46C41.3082 20.06 40.5749 20.5133 39.7216 20.82C38.8816 21.1267 37.9749 21.28 37.0016 21.28C36.0549 21.28 35.1616 21.1267 34.3216 20.82C33.4816 20.5133 32.7482 20.06 32.1216 19.46C31.4949 18.8467 31.0016 18.0933 30.6416 17.2C30.2816 16.2933 30.1016 15.2467 30.1016 14.06C30.1016 12.8733 30.2882 11.8333 30.6616 10.94C31.0349 10.0333 31.5349 9.27333 32.1616 8.66C32.8016 8.04667 33.5349 7.58667 34.3616 7.28C35.2016 6.97333 36.0816 6.82 37.0016 6.82C37.9482 6.82 38.8416 6.97333 39.6816 7.28C40.5216 7.58667 41.2549 8.04667 41.8816 8.66C42.5082 9.27333 43.0016 10.0333 43.3616 10.94C43.7216 11.8333 43.9016 12.8733 43.9016 14.06ZM71.1964 7.14V9.8H67.0164V21H63.8964V9.8H59.7164V7.14H71.1964Z" fill="white"/>
</svg>
